 http://www.silvertorrent.org 
http://www.shotpix.com/images/08096634903738710469.png
 
http://bitpic.bitboxes.co.uk/images/151truth.poster.jpg

IMDB:http://www.imdb.com/title/tt2083379/

Plot:A former CIA operative turned political talk show host is hired by a corporate whistle blower to expose her company's cover-up of a massacre in a South American village.

Source:1080p WEB-DL thanks....

General
Format                           : AVI
Format/Info                      : Audio Video Interleave
File size                        : 1.03 GiB
Duration                         : 1h 46mn
Overall bit rate                 : 1 390 Kbps
Writing application              : VirtualDubMod 1.5.10.2 (build 2540/release)
Writing library                  : VirtualDubMod build 2540/release

Video
ID                               : 0
Format                           : MPEG-4 Visual
Format profile                   : Advanced Simple@L4
Format settings, BVOP            : Yes
Format settings, QPel            : No
Format settings, GMC             : No warppoints
Format settings, Matrix          : Default (H.263)
Codec ID                         : XVID
Codec ID/Hint                    : XviD
Duration                         : 1h 46mn
Bit rate                         : 996 Kbps
Width                            : 672 pixels
Height                           : 378 pixels
Display aspect ratio             : 16:9
Frame rate                       : 23.976 fps
Resolution                       : 8 bits
Colorimetry                      : 4:2:0
Scan type                        : Progressive
Bits/(Pixel*Frame)               : 0.164
Stream size                      : 756 MiB (72%)
Writing library                  : XviD 1.2.1 (UTC 2008-12-04)

Audio
ID                               : 1
Format                           : AC-3
Format/Info                      : Audio Coding 3
Codec ID                         : 2000
Duration                         : 1h 46mn
Bit rate mode                    : Constant
Bit rate                         : 384 Kbps
Channel(s)                       : 6 channels
Channel positions                : Front: L C R, Surround: L R, LFE
Sampling rate                    : 48.0 KHz
Stream size                      : 291 MiB (28%)
Alignment                        : Split accross interleaves
Interleave, duration             : 42 ms (1.00 video frame)
Interleave, preload duration     : 500 ms

 
http://silvertorrent.org/index.php?page=torrent-details&id=7c71a58857476abd705992bb4fb45b4596c31531
 
http://bitpic.bitboxes.co.uk/images/550dark.1.png 
http://bitpic.bitboxes.co.uk/images/246dark.3.png 
http://bitpic.bitboxes.co.uk/images/633dark.2.png 
http://bitpic.bitboxes.co.uk/images/555dark.4.png 
http://bitpic.bitboxes.co.uk/images/309dark.5.png 
http://bitpic.bitboxes.co.uk/images/269dark.6.png
